<?xml version="1.0" standalone="no"?>
<svg width="52" height="80" version="2.0" xmlns="http://www.w3.org/2000/svg">
<defs><style>
.manila{stroke-width:1;stroke:#f1d592;fill:#f1d592;}
.shadow{stroke-width:2;stroke:#75570f;fill:#75570f;}
.highlight{stroke-width:1;stroke:#f8e9c6;fill:#f8e9c6;}
.icodke{stroke-width:1;stroke:#75570f;fill:#f8e9c6;}
.icodkf{stroke-width:1;stroke:#75570f;fill:#75570f;}
text{stroke:0;fill:#FFF;font-family:"W95font";font-size:12px;}
</style></defs>
<line x1="46" y1="10" x2="46" y2="32" class="shadow" />
<line x1="46" y1="31" x2="10" y2="31" class="shadow" />
<path d="M 15 5, 25 5, 30 10, 45 10, 45 30, 10 30, 10 10 Z" class="manila" />
<line x1="45.5" y1="10" x2="9.5" y2="10" class="highlight" />
<line x1="10" y1="9.5" x2="10" y2="30.5" class="highlight" />
<line x1="15" y1="5" x2="25" y2="5" class="highlight" />
<path d="M 23 15, 33 15, 33 25, 23 25 Z" class="icodke" />
<path d="M 25.5 17, 26.5 17, 26.5 17.6, 25.5 17.6 Z" class="icodkf" />
<line x1="28.1" y1="17.5" x2="31" y2="17.5" class="icodkf" />
<line x1="25" y1="20" x2="31" y2="20" class="icodkf" />
<line x1="25" y1="22.5" x2="31" y2="22.5" class="icodkf" />
<text x="4" y="47">Profile</text>
</svg>